<svg width="24" height="24" viewBox="0 0 24 24" fill="none" xmlns="http://www.w3.org/2000/svg">
<path d="M11 17.2174C11 16.7854 11.336 16.4348 11.75 16.4348H21.25C21.664 16.4348 22 16.7854 22 17.2174C22 17.6494 21.664 18 21.25 18H11.75C11.336 18 11 17.6494 11 17.2174ZM2 12C2 11.568 2.336 11.2174 2.75 11.2174H21.25C21.664 11.2174 22 11.568 22 12C22 12.432 21.664 12.7826 21.25 12.7826H2.75C2.336 12.7826 2 12.432 2 12ZM6 6.78261C6 6.35061 6.336 6 6.75 6H21.25C21.664 6 22 6.35061 22 6.78261C22 7.21461 21.664 7.56522 21.25 7.56522H6.75C6.336 7.56522 6 7.21461 6 6.78261Z" fill="black"/>
</svg>
